<?xml version="1.0" encoding="UTF-8"?>
<!--Generator: Apple Native CoreSVG 341-->
<!DOCTYPE svg
PUBLIC "-//W3C//DTD SVG 1.1//EN"
       "http://www.w3.org/Graphics/SVG/1.1/DTD/svg11.dtd">
<svg version="1.1" xmlns="http://www.w3.org/2000/svg" xmlns:xlink="http://www.w3.org/1999/xlink" viewBox="0 0 91.8213 50.7703">
 <g>
  <rect height="50.7703" opacity="0" width="91.8213" x="0" y="0"/>
  <path d="M37.5212 8.96671L15.7227 8.96671C12.0605 8.96671 8.64258 9.45499 6.73828 11.4081C4.83398 13.3124 4.32129 16.6816 4.32129 20.3681L4.32129 30.5976C4.32129 34.1376 4.83398 37.4579 6.73828 39.3622C8.66699 41.2909 12.0361 41.828 15.5762 41.828L31.1894 41.828L30.5908 43.4394C30.2359 44.4016 30.1332 45.3154 30.2302 46.1493L16.4307 46.1493C10.8398 46.1493 6.61621 45.5634 3.56445 42.536C0.537109 39.5331 0 35.3339 0 29.7431L0 20.9052C0 15.4853 0.561523 11.286 3.58887 8.2587C6.61621 5.23136 10.8643 4.62101 16.2598 4.62101L40.9747 4.62101ZM78.418 8.23429C81.4209 11.2616 81.9824 15.4609 81.9824 21.0517L81.9824 29.7431C81.9824 35.3339 81.4209 39.5331 78.418 42.536C75.3906 45.5634 71.1426 46.1493 65.5518 46.1493L41.7378 46.1493L45.1767 41.828L66.4062 41.828C69.9463 41.828 73.3154 41.3153 75.2441 39.3622C77.1484 37.4579 77.6611 34.1376 77.6611 30.5976L77.6611 20.1972C77.6611 16.6571 77.1484 13.3368 75.2441 11.4081C73.3154 9.50382 69.9463 8.96671 66.4062 8.96671L51.5048 8.96671L52.0996 7.35538C52.458 6.38369 52.5598 5.46137 52.4584 4.62101L65.5518 4.62101C71.1426 4.62101 75.3662 5.23136 78.418 8.23429ZM91.4795 25.3974C91.4795 30.0116 88.2812 33.0878 85.8643 33.2343L85.8643 17.5605C88.2812 17.7069 91.4795 20.7831 91.4795 25.3974Z" fill="white" fill-opacity="0.85"/>
  <path d="M25.3174 24.3232C24.4629 25.373 23.999 26.5937 23.999 27.8632C23.999 30.7441 26.3184 32.9901 29.2236 32.9901L34.4727 32.9901L32.4501 38.4345L14.2578 38.4345C11.6943 38.4345 10.1318 38.0194 9.13086 37.0429C8.12988 36.0419 7.71484 34.5282 7.71484 31.9159L7.71484 19.0253C7.71484 16.3153 8.12988 14.7284 9.13086 13.7275C10.1074 12.7509 11.6699 12.3603 14.4043 12.3603L34.8243 12.3603ZM72.8516 13.7519C73.8525 14.7528 74.2432 16.2665 74.2432 18.8788L74.2432 31.9159C74.2432 34.5038 73.8525 36.0419 72.8516 37.0429C71.8506 38.0439 70.3125 38.4345 67.7246 38.4345L47.8773 38.4345L57.3975 26.4716C58.2275 25.4218 58.7158 24.2011 58.7158 22.9316C58.7158 20.0507 56.3721 17.8046 53.4912 17.8046L48.2422 17.8046L50.252 12.3603L67.7246 12.3603C70.2881 12.3603 71.8506 12.7509 72.8516 13.7519Z" fill="white" fill-opacity="0.85"/>
  <path d="M27.8564 27.8632C27.8564 28.5956 28.4424 29.1083 29.1992 29.1083L40.0635 29.1083L34.2285 44.7821C33.5449 46.6376 35.5225 47.663 36.7188 46.1493L54.2969 24.1034C54.6143 23.664 54.8096 23.2978 54.8096 22.9316C54.8096 22.1991 54.2236 21.6864 53.4668 21.6864L42.6025 21.6864L48.4131 6.01261C49.0967 4.15714 47.1436 3.13175 45.9229 4.64542L28.3691 26.6913C28.0273 27.1308 27.8564 27.497 27.8564 27.8632Z" fill="white" fill-opacity="0.85"/>
 </g>
</svg>
