<?xml version="1.0" encoding="UTF-8"?>
<!--Generator: Apple Native CoreSVG 341-->
<!DOCTYPE svg
PUBLIC "-//W3C//DTD SVG 1.1//EN"
       "http://www.w3.org/Graphics/SVG/1.1/DTD/svg11.dtd">
<svg version="1.1" xmlns="http://www.w3.org/2000/svg" xmlns:xlink="http://www.w3.org/1999/xlink" viewBox="0 0 91.8213 41.5283">
 <g>
  <rect height="41.5283" opacity="0" width="91.8213" x="0" y="0"/>
  <path d="M16.4307 41.5283L65.5518 41.5283C71.1426 41.5283 75.3906 40.9424 78.418 37.915C81.4209 34.9121 81.9824 30.7129 81.9824 25.1221L81.9824 16.4307C81.9824 10.8398 81.4209 6.64062 78.418 3.61328C75.3662 0.610352 71.1426 0 65.5518 0L16.2598 0C10.8643 0 6.61621 0.610352 3.58887 3.6377C0.561523 6.66504 0 10.8643 0 16.2842L0 25.1221C0 30.7129 0.537109 34.9121 3.56445 37.915C6.61621 40.9424 10.8398 41.5283 16.4307 41.5283ZM15.5762 37.207C12.0361 37.207 8.66699 36.6699 6.73828 34.7412C4.83398 32.8369 4.32129 29.5166 4.32129 25.9766L4.32129 15.7471C4.32129 12.0605 4.83398 8.69141 6.73828 6.78711C8.64258 4.83398 12.0605 4.3457 15.7227 4.3457L66.4062 4.3457C69.9463 4.3457 73.3154 4.88281 75.2441 6.78711C77.1484 8.71582 77.6611 12.0361 77.6611 15.5762L77.6611 25.9766C77.6611 29.5166 77.1484 32.8369 75.2441 34.7412C73.3154 36.6943 69.9463 37.207 66.4062 37.207ZM85.8643 28.6133C88.2812 28.4668 91.4795 25.3906 91.4795 20.7764C91.4795 16.1621 88.2812 13.0859 85.8643 12.9395Z" fill="white" fill-opacity="0.85"/>
 </g>
</svg>
